<svg id="Layer_1" data-name="Layer 1" xmlns="http://www.w3.org/2000/svg" viewBox="0 0 502.97 506"><defs><style>.cls-1{fill:#ffb992;}.cls-2{fill:#f37026;}.cls-3{fill:#ffd4bc;}.cls-4{fill:#eb6000;}.cls-5,.cls-6{fill:none;stroke:#008ded;}.cls-5,.cls-6,.cls-8{stroke-miterlimit:10;}.cls-5{stroke-width:9px;}.cls-6{stroke-width:3px;}.cls-7{fill:#fd9259;}.cls-8{fill:#292e30;stroke:#292e30;}</style></defs><title>Untitled-5</title><path class="cls-1" d="M266.22,217.7c8.4,1.48,11.15-5.45,18.37-4.45,4.52-3.43,8.71-6.79,13.75-8.4,5.91-.2,6.86-2.41,10.65-5.65.18-9.17,9.1-9.67,13.87-11.39,5.26-.92,5.27-4.86,8.5-9.72.11-10,10.43-9.4,13.27-16,4.32,1.49,16.82,10.18,21.46,1.94-.58-8.88,5.35-8.08,9.88-10.29.62-2.78,2.08-2.1,4-2.9a156.49,156.49,0,0,0-114.44-49.38,158.07,158.07,0,0,0-40.48,5.26c-14.39,24.54-27.07,50.37-38,72.85,3.18.43,6.87-.1,10.39-.06,8.43-5.35,10.55.79,17.66-.45,1.1,4.43,2.82,19.65,12.26,19,7.13-5.32,7.5.08,11.83,2.67,6.79-2.55,9.64,4,13.18,9.61a28.75,28.75,0,0,0,7.56,6.08h0" transform="translate(-3.3 -3.5)"/><path class="cls-2" d="M382.17,153c-1.95.8-5.59.12-6.21,2.9-4.53,2.21-10.45,1.41-9.88,10.29a6.41,6.41,0,0,1-4.7,3.38,8.83,8.83,0,0,1-1.46.12,13.71,13.71,0,0,1-3.1-.39,25.11,25.11,0,0,1-3.18-1c-3.68-1.39-7.13-3.42-9-4.07-1.77,4.14-5.62,4.62-8.28,6.83a7.18,7.18,0,0,0-1.43,1.58,9.8,9.8,0,0,0-1.38,5.44c-1.61,2.43-3,5.18-4.58,7.43a17.74,17.74,0,0,1-1.26,1.59,8.41,8.41,0,0,1-4.84,2.89c-4.77,1.72-11.51,0-11.69,9.21-2.37,2-4.48,4.5-7.18,6.12a12.73,12.73,0,0,1-1.69.86,11.19,11.19,0,0,1-4,.85,24.6,24.6,0,0,0-3.64,1.51,41.23,41.23,0,0,0-5.1,3.15c-1.66,1.18-3.31,2.45-5,3.74a9.75,9.75,0,0,0-3.66.16,12.45,12.45,0,0,0-2.11.72c-1.35.59-2.63,1.36-4,2a15.05,15.05,0,0,1-4.43,1.57,12.29,12.29,0,0,1-4.19-.05c.51,3.36-4.55,5.37-7.34,14.22-4,6.81-13,8.62-19.45,13A32.27,32.27,0,0,0,222,260.32c-4.76,2.49-2.4,7.3-10,14.18-10.6,1.09-7.81-9.52-16.09-4.2-7,.65.26,11.47-7.13,12.34-2.14,4.49-5.74,8.18-9.38,12,1.06,7,7.12,5.6,8.9,13.32-.51,6.14,22.83,11.63,14.46,13-15.72,2.65-2.63,11.38-5.19,17.39,14.47-4.88,32.57-3,35.75-.87,2.32-7.64,4.5-15.6,6.56-23.74.8-3.16,29.56-11.64,30-8.41,6.62,46.77,5.27,58.14,21.9,77.2,7.55,8.66,12.93,8.69,13.09,8.73,9.08,2.19,28.58,5.93,48-52.37,8.36-25.07,8.09-53.5,6.37-74.76-41.09,18.16-69.05-12.1-63.11-38.72-.05.18,0-.18,0,0,10.68-38.11,67.31-25,79.17,17.3.65-.76,1.28-1.53,1.9-2.35,10.52-14.09,21.8-27.42,35.56-35.93Z" transform="translate(-3.3 -3.5)"/><path class="cls-3" d="M195.42,340.53c2.57-6-12.06-17.55,3.66-20.2,8.37-1.41-11.25-1.9-10.75-8-1.77-7.72-10-10.65-11.08-17.68a59,59,0,0,0,9.38-14.15c7.39-.87.09-11.68,7.13-12.34,8.28-5.32,7.67,3.11,18.27,2,7.56-6.88,5.2-9.51,10-12A32.27,32.27,0,0,1,239.43,245c6.45-4.42,13.24-4,17.27-10.86,2.79-8.85,8.35-10.79,7.84-14.15l-2.67-.27-2-1.07a28.75,28.75,0,0,1-7.56-6.08c-3.54-5.63-4.21-12.15-11-9.61-4.33-2.59-6.88-8-14-2.67-9.44.61-13.34-14.61-14.44-19-7.11,1.24-4.86-4.9-13.29.45-3.44,0-11.41.46-14.54.08-16.54,38.21-51,109.61-49.27,158.23,16.69,24.91,41.75,44.8,69.83,56.74,12.17-12.38,19.67-30.86,27.31-55.66,0,0,0-4.36,0-4.35s0,4.36,0,4.35C233.06,340.62,209.84,335.67,195.42,340.53Z" transform="translate(-3.3 -3.5)"/><path class="cls-4" d="M304,83.39l-4.86-2.26,2,1.07A12.13,12.13,0,0,0,304,83.39Z" transform="translate(-3.3 -3.5)"/><ellipse class="cls-5" cx="251.73" cy="253.34" rx="235.14" ry="236.57"/><ellipse class="cls-6" cx="251.49" cy="253" rx="249.99" ry="251.5"/><path class="cls-4" d="M309.59,229a2.82,2.82,0,0,0-.12.72c-1.52,21.66,25.88,34.19,49,25.1-.3-2.85-.61-5.52-.91-7.93C353,210,316.31,209.68,309.59,229Z" transform="translate(-3.3 -3.5)"/><path class="cls-7" d="M258.78,372.94c-6.29-14.42-8.07-35-8.56-31.93-3.19,20.12-15.69,43.61-31,61.88a158.14,158.14,0,0,0,68.4,5.35C279.07,403.75,268.87,396.06,258.78,372.94Z" transform="translate(-3.3 -3.5)"/><path class="cls-4" d="M375.83,252.68c1.94,26.79,4.52,80.08-8.17,104.09-.46.87-2.31,12.92-2.74,13.75,31-21,54.63-71.14,54.63-115.19,0-11.25,0-15.76-4.56-33.76C409.79,228.38,380.47,251.23,375.83,252.68Z" transform="translate(-3.3 -3.5)"/><ellipse class="cls-5" cx="262.25" cy="252.11" rx="156.11" ry="154.19"/><path class="cls-8" d="M444.06,217.43a3.13,3.13,0,0,1-2.28,1c-36,.62-44.12,20-64.44,35-50.6,37.41-87.93,2.31-81.15-28.06,0-.18-.05.18,0,0,11.54-41.18,76.78-22.53,81.15,28.06,2.27,26.26,2.3,39.1,0,63.47-2.27,24.08-9.08,48.15-20.43,65.66-16.14,24.9-46.24,36.71-63.56,28.45-9.45-4.51-22.09-9.52-34.57-38.1-6.29-14.42-8.07-35-8.56-31.93-5.86,37-43.17,85.4-71.67,91.74-29.51,6.57-82.28-17.83-94.9-61.28-15.89-54.72-14.9-118.58,53.24-207.16C158.7,135.93,186.7,109,184.47,109,164,109,105,134,81.41,180.94c-1.42,2.82-1.27-14.37-1.27-14.37,0-.35,2.37-11.63,2.45-12,12.83-52.85,91.39-92.87,131.7-89,17.3,1.65,26.21,15.49,25.1,17.3-78.5,127.24-113.54,234.28-102.06,282.18,10.46,43.64,25.74,43.64,41.21,43.79,31.06.29,48.43-44,61.36-95.11.8-3.16,29.56-11.64,30-8.41,6.62,46.77,5.27,58.14,21.9,77.2,7.55,8.66,12.93,8.69,13.09,8.73,9.08,2.19,28.58,5.93,48-52.37,10.91-32.73,7.13-71.23,4.6-92C353,210,316.31,209.68,309.59,229a2.81,2.81,0,0,0-.12.72c-2,28.21,45.1,41,67.78,10.61,19.32-25.86,41.17-49.22,76.3-44.74a2.94,2.94,0,0,1,2,4.86Z" transform="translate(-3.3 -3.5)"/></svg>