<?xml version="1.0" standalone="no"?>
<!DOCTYPE svg PUBLIC "-//W3C//DTD SVG 20010904//EN"
 "http://www.w3.org/TR/2001/REC-SVG-20010904/DTD/svg10.dtd">
<svg version="1.0" xmlns="http://www.w3.org/2000/svg"
 width="512.000000pt" height="512.000000pt" viewBox="0 0 512.000000 512.000000"
 preserveAspectRatio="xMidYMid meet">
<metadata>
Created by potrace 1.11, written by Peter Selinger 2001-2013
</metadata>
<g transform="translate(0.000000,512.000000) scale(0.100000,-0.100000)"
fill="#000000" stroke="none">
<path d="M2285 5069 c-470 -51 -931 -242 -1310 -544 -103 -82 -286 -266 -378
-380 -238 -294 -419 -672 -501 -1046 -75 -337 -75 -751 0 -1088 61 -279 200
-611 351 -841 318 -483 784 -840 1334 -1021 416 -136 905 -155 1344 -52 460
108 903 363 1233 708 185 194 326 398 449 651 117 242 198 515 235 794 16 122
16 488 0 610 -48 362 -181 741 -362 1030 -394 631 -1031 1050 -1770 1165 -126
20 -494 28 -625 14z m575 -29 c562 -79 1050 -320 1440 -710 980 -980 980
-2570 0 -3550 -692 -692 -1730 -915 -2633 -566 -769 297 -1341 948 -1536 1747
-54 221 -66 329 -66 594 0 180 5 269 18 355 82 531 312 1003 673 1379 417 435
962 699 1569 761 108 11 430 5 535 -10z"/>
<path d="M2335 4950 c-549 -56 -1040 -280 -1431 -653 -325 -310 -558 -707
-669 -1141 -58 -225 -70 -331 -70 -606 0 -260 10 -350 60 -565 124 -529 448
-1025 882 -1352 276 -207 591 -356 908 -427 337 -76 714 -78 1055 -5 317 68
712 258 966 463 400 324 686 757 819 1243 66 241 80 347 80 643 0 290 -12 388
-74 626 -174 663 -638 1230 -1255 1534 -234 115 -466 188 -716 225 -129 19
-433 27 -555 15z m365 -80 c562 -40 1052 -259 1454 -650 309 -300 525 -671
631 -1085 56 -218 70 -331 69 -585 0 -226 -11 -340 -49 -510 -177 -770 -730
-1403 -1466 -1674 -377 -139 -840 -174 -1234 -95 -884 178 -1584 852 -1799
1730 -47 196 -61 316 -60 554 0 248 14 365 69 580 45 174 81 271 169 450 122
247 264 442 462 635 194 189 369 310 619 431 298 144 579 210 960 227 22 1
101 -3 175 -8z"/>
<path d="M1908 4451 c-347 -76 -706 -288 -911 -541 -81 -101 -158 -252 -181
-359 -16 -73 -22 -232 -10 -244 4 -4 24 23 45 59 152 260 476 510 803 619 43
14 101 29 129 32 l51 6 -31 -39 c-17 -21 -103 -114 -190 -205 -200 -208 -246
-265 -373 -464 -255 -397 -358 -610 -430 -889 -89 -342 -78 -722 30 -1043 93
-280 370 -516 687 -587 219 -49 376 2 565 182 l77 74 108 -26 c158 -37 304
-50 458 -40 152 9 195 9 290 -1 146 -15 309 52 442 182 43 41 114 103 158 136
109 82 267 244 342 350 238 337 342 791 268 1172 -7 39 -10 73 -6 78 4 4 45
12 92 18 46 6 93 13 104 15 18 3 123 150 140 195 12 33 -19 41 -137 37 -84 -3
-128 -10 -173 -27 -100 -37 -94 -37 -106 -2 -24 69 -94 201 -154 291 -254 382
-644 628 -1110 701 -114 18 -369 16 -489 -5 -54 -9 -100 -15 -102 -14 -1 2 22
43 53 92 51 82 54 90 43 117 -17 39 -73 87 -140 118 -74 34 -216 39 -342 12z
m1082 -424 c253 -60 479 -176 679 -346 65 -55 181 -192 252 -297 53 -79 159
-288 159 -314 0 -8 -29 -39 -64 -67 -55 -45 -148 -148 -234 -257 -12 -16 -23
-27 -25 -25 -1 2 -19 38 -40 80 -84 169 -250 284 -428 296 -102 7 -173 -15
-239 -74 -72 -65 -100 -128 -100 -227 1 -171 101 -306 268 -361 75 -24 208
-22 292 4 36 12 69 21 74 21 5 0 6 -104 3 -237 -4 -189 -9 -258 -26 -335 -27
-123 -81 -280 -136 -389 -121 -244 -230 -322 -390 -278 -87 24 -213 194 -250
339 -15 57 -74 457 -75 503 0 13 -9 17 -39 17 -42 0 -195 -41 -242 -66 -35
-18 -39 -26 -84 -199 -76 -292 -232 -625 -293 -625 -26 0 -196 94 -286 158
-105 74 -287 256 -354 354 l-53 78 11 82 c66 504 329 1190 739 1928 l119 215
74 17 c132 32 191 37 388 33 165 -3 211 -7 300 -28z m1050 -1228 c-61 -53
-110 -91 -110 -85 0 7 132 116 139 116 4 -1 -10 -14 -29 -31z m-1484 -1344
c34 -103 116 -246 181 -316 l63 -67 -77 -7 c-93 -8 -273 8 -397 35 -49 11 -90
21 -92 23 -1 1 27 45 62 97 79 116 155 268 186 373 l22 78 18 -83 c10 -45 25
-105 34 -133z m-1088 46 c108 -123 289 -261 456 -346 l76 -38 -41 -28 c-62
-40 -116 -52 -221 -47 -109 5 -154 24 -213 89 -69 77 -148 287 -161 428 l-5
66 26 -30 c15 -16 52 -59 83 -94z"/>
</g>
</svg>
