<svg id="Layer_1" data-name="Layer 1" xmlns="http://www.w3.org/2000/svg" viewBox="0 0 189.8 190.95"><defs><style>.cls-1{fill:#ffb992;}.cls-2{fill:#eb6000;}.cls-3{fill:#f37026;}.cls-4{fill:#ffd4bc;}.cls-5,.cls-6{fill:none;stroke:#008ded;}.cls-5,.cls-6,.cls-8{stroke-miterlimit:10;}.cls-5{stroke-width:4px;}.cls-7{fill:#fd9259;}.cls-8{fill:#292e30;stroke:#292e30;}</style></defs><title>WO-192x192</title><path class="cls-1" d="M100.69,81.32c3.17.56,4.21-2.06,6.94-1.68a18.1,18.1,0,0,1,5.19-3.17c2.23-.07,2.59-.91,4-2.13.07-3.46,3.44-3.65,5.24-4.3,2-.35,2-1.84,3.21-3.67,0-3.77,3.94-3.55,5-6.06,1.63.56,6.35,3.84,8.1.73-.22-3.35,2-3,3.73-3.89.23-1,.79-.79,1.52-1.09a59.09,59.09,0,0,0-43.22-18.65,59.69,59.69,0,0,0-15.29,2c-5.43,9.27-10.22,19-14.37,27.51a34.52,34.52,0,0,0,3.92,0c3.18-2,4,.3,6.67-.17.42,1.67,1.07,7.42,4.63,7.19,2.69-2,2.83,0,4.47,1,2.56-1,3.64,1.5,5,3.63a10.86,10.86,0,0,0,2.86,2.3h0" transform="translate(-1.47 -0.5)"/><path class="cls-2" d="M115,30.6l-1.83-.85.74.4A4.58,4.58,0,0,0,115,30.6Z" transform="translate(-1.47 -0.5)"/><path class="cls-3" d="M144.48,56.89c-.73.3-2.11,0-2.34,1.09-1.71.84-3.95.53-3.73,3.89a2.42,2.42,0,0,1-1.78,1.28,3.34,3.34,0,0,1-.55,0,5.18,5.18,0,0,1-1.17-.15,9.48,9.48,0,0,1-1.2-.37c-1.39-.52-2.69-1.29-3.41-1.54-.67,1.57-2.12,1.74-3.13,2.58a2.71,2.71,0,0,0-.54.6,3.7,3.7,0,0,0-.52,2.06c-.61.92-1.12,2-1.73,2.81a6.7,6.7,0,0,1-.48.6,3.18,3.18,0,0,1-1.83,1.09c-1.8.65-4.35,0-4.41,3.48A21.63,21.63,0,0,1,115,76.65a4.81,4.81,0,0,1-.64.32,4.23,4.23,0,0,1-1.5.32,9.29,9.29,0,0,0-1.37.57,15.57,15.57,0,0,0-1.93,1.19c-.63.44-1.25.93-1.89,1.41a3.68,3.68,0,0,0-1.38.06,4.7,4.7,0,0,0-.8.27c-.51.22-1,.51-1.5.77a5.68,5.68,0,0,1-1.67.59,4.64,4.64,0,0,1-1.58,0c.19,1.27-1.72,2-2.77,5.37-1.52,2.57-4.91,3.26-7.35,4.92a12.18,12.18,0,0,0-6.59,5c-1.8.94-.91,2.76-3.76,5.35-4,.41-2.95-3.59-6.07-1.59-2.66.25.1,4.33-2.69,4.66a18.15,18.15,0,0,1-3.54,4.52c.4,2.66,2.69,2.12,3.36,5-.19,2.32,8.62,4.39,5.46,4.92-5.94,1-1,4.3-2,6.57,5.46-1.84,12.3-1.12,13.5-.33.88-2.89,1.7-5.89,2.48-9,.3-1.19,11.16-4.39,11.33-3.18,2.5,17.66,2,22,8.27,29.15,2.85,3.27,4.88,3.28,4.94,3.3,3.43.83,10.79,2.24,18.13-19.78,3.16-9.47,3.05-20.2,2.41-28.23-15.52,6.86-26.08-4.57-23.83-14.62,0,.07,0-.07,0,0,4-14.39,25.42-9.43,29.9,6.53.24-.29.48-.58.72-.89,4-5.32,8.23-10.35,13.43-13.57Z" transform="translate(-1.47 -0.5)"/><path class="cls-4" d="M74,127.7c1-2.27-4.56-6.63,1.38-7.63,3.16-.53-4.25-.72-4.06-3-.67-2.91-3.78-4-4.18-6.68A22.27,22.27,0,0,0,70.64,105c2.79-.33,0-4.41,2.69-4.66,3.13-2,2.9,1.17,6.9.76,2.86-2.6,2-3.59,3.76-4.53a12.18,12.18,0,0,1,6.59-5c2.44-1.67,5-1.53,6.52-4.1,1.05-3.34,3.15-4.07,3-5.34l-1-.1-.74-.4a10.86,10.86,0,0,1-2.86-2.3c-1.34-2.13-1.59-4.59-4.15-3.63-1.63-1-2.6-3-5.29-1-3.56.23-5-5.52-5.45-7.19-2.68.47-1.84-1.85-5,.17-1.3,0-4.31.17-5.49,0C63.8,82.17,50.8,109.13,51.44,127.49a60.31,60.31,0,0,0,26.37,21.43c4.6-4.67,7.43-11.65,10.31-21,0,0,0-1.64,0-1.64s0,1.64,0,1.64C88.17,127.74,79.4,125.87,74,127.7Z" transform="translate(-1.47 -0.5)"/><ellipse class="cls-5" cx="94.24" cy="95.6" rx="88.8" ry="89.33"/><ellipse class="cls-6" cx="94.9" cy="95.47" rx="94.4" ry="94.97"/><path class="cls-2" d="M117.07,85.6a1.07,1.07,0,0,0,0,.27c-.57,8.18,9.77,12.91,18.49,9.48-.11-1.08-.23-2.08-.34-3C133.47,78.4,119.61,78.29,117.07,85.6Z" transform="translate(-1.47 -0.5)"/><path class="cls-7" d="M97.88,139.94c-2.38-5.45-3-13.23-3.23-12.06-1.2,7.6-5.93,16.47-11.71,23.37a59.72,59.72,0,0,0,25.83,2C105.55,151.58,101.69,148.67,97.88,139.94Z" transform="translate(-1.47 -0.5)"/><path class="cls-2" d="M142.09,94.53c.73,10.12,1.71,30.24-3.09,39.31-.17.33-.87,4.88-1,5.19,11.7-7.95,20.63-26.87,20.63-43.5,0-4.25,0-5.95-1.72-12.75C154.91,85.35,143.84,94,142.09,94.53Z" transform="translate(-1.47 -0.5)"/><ellipse class="cls-5" cx="98.96" cy="95.14" rx="58.95" ry="58.22"/><path class="cls-8" d="M167.85,81.22a1.18,1.18,0,0,1-.86.38c-13.58.23-16.66,7.55-24.33,13.22C123.54,109,109.45,95.7,112,84.23c0-.07,0,.07,0,0,4.36-15.55,29-8.51,30.65,10.59a111.28,111.28,0,0,1,0,24c-.86,9.09-3.43,18.18-7.71,24.79-6.1,9.4-17.46,13.86-24,10.74-3.57-1.7-8.34-3.6-13.05-14.39-2.38-5.45-3-13.23-3.23-12.06-2.21,14-16.3,32.25-27.07,34.64-11.14,2.48-31.07-6.73-35.84-23.14-6-20.66-5.63-44.78,20.1-78.23,8.24-10.71,18.81-20.88,18-20.88-7.71,0-30,9.44-38.92,27.16-.54,1.07-.48-5.43-.48-5.43s.89-4.39.92-4.52c4.84-20,34.51-35.07,49.73-33.61,6.53.62,9.9,5.85,9.48,6.53C60.92,78.46,47.69,118.88,52,137c3.95,16.48,9.72,16.48,15.56,16.53,11.73.11,18.29-16.61,23.17-35.92.3-1.19,11.16-4.39,11.33-3.18,2.5,17.66,2,22,8.27,29.15,2.85,3.27,4.88,3.28,4.94,3.3,3.43.83,10.79,2.24,18.13-19.78,4.12-12.36,2.69-26.9,1.74-34.73-1.7-14-15.56-14.06-18.1-6.76a1.06,1.06,0,0,0,0,.27c-.75,10.65,17,15.47,25.59,4,7.29-9.77,15.55-18.59,28.81-16.9a1.11,1.11,0,0,1,.74,1.84Z" transform="translate(-1.47 -0.5)"/></svg>