<svg id="Layer_1" data-name="Layer 1" xmlns="http://www.w3.org/2000/svg" viewBox="0 0 30.3 30.48"><defs><style>.cls-1{fill:#ffb992;}.cls-2{fill:#f37026;}.cls-3{fill:#ffd4bc;}.cls-4{fill:#eb6000;}.cls-5,.cls-6{fill:none;stroke:#008ded;}.cls-5,.cls-6,.cls-8{stroke-miterlimit:10;}.cls-5{stroke-width:0.75px;}.cls-6,.cls-8{stroke-width:0.25px;}.cls-7{fill:#fd9259;}.cls-8{fill:#292e30;stroke:#292e30;}</style></defs><title>Untitled-3</title><path class="cls-1" d="M16.47,14c.5.09.67-.33,1.1-.27a2.88,2.88,0,0,1,.83-.51c.35,0,.41-.14.64-.34,0-.55.55-.58.83-.68s.32-.29.51-.58c0-.6.63-.57.8-1,.26.09,1,.61,1.29.12,0-.53.32-.49.59-.62,0-.17.13-.13.24-.17a9.41,9.41,0,0,0-6.88-3A9.5,9.5,0,0,0,14,7.31c-.86,1.47-1.63,3-2.29,4.38a5.49,5.49,0,0,0,.62,0c.51-.32.63,0,1.06,0,.07.27.17,1.18.74,1.14.43-.32.45,0,.71.16.41-.15.58.24.79.58a1.73,1.73,0,0,0,.45.37h0" transform="translate(-0.82 -1.05)"/><path class="cls-2" d="M23.44,10.09c-.12,0-.34,0-.37.17-.27.13-.63.08-.59.62a.39.39,0,0,1-.28.2h-.09l-.19,0L21.73,11c-.22-.08-.43-.21-.54-.24-.11.25-.34.28-.5.41a.43.43,0,0,0-.09.09.59.59,0,0,0-.08.33c-.1.15-.18.31-.28.45l-.08.1a.51.51,0,0,1-.29.17c-.29.1-.69,0-.7.55a3.44,3.44,0,0,1-.43.37l-.1.05a.67.67,0,0,1-.24.05l-.22.09a2.48,2.48,0,0,0-.31.19l-.3.22a.59.59,0,0,0-.22,0l-.13,0L17,14a.9.9,0,0,1-.27.09.74.74,0,0,1-.25,0c0,.2-.27.32-.44.85s-.78.52-1.17.78a1.94,1.94,0,0,0-1,.79c-.29.15-.14.44-.6.85-.64.07-.47-.57-1-.25-.42,0,0,.69-.43.74a2.89,2.89,0,0,1-.56.72c.06.42.43.34.53.8s1.37.7.87.78c-.94.16-.16.68-.31,1a3.69,3.69,0,0,1,2.15-.05c.14-.46.27-.94.39-1.43,0-.19,1.78-.7,1.8-.51.4,2.81.32,3.49,1.32,4.64.45.52.78.52.79.52.55.13,1.72.36,2.89-3.15a11.7,11.7,0,0,0,.38-4.49c-2.47,1.09-4.15-.73-3.79-2.33h0c.64-2.29,4-1.5,4.76,1l.11-.14a8.29,8.29,0,0,1,2.14-2.16Z" transform="translate(-0.82 -1.05)"/><path class="cls-3" d="M12.22,21.36c.15-.36-.73-1.06.22-1.21.5-.08-.68-.11-.65-.48s-.6-.64-.67-1.06a3.54,3.54,0,0,0,.56-.85c.44-.05,0-.7.43-.74.5-.32.46.19,1.1.12.45-.41.31-.57.6-.72a1.94,1.94,0,0,1,1-.79c.39-.27.8-.24,1-.65s.5-.65.47-.85l-.16,0L16.09,14a1.73,1.73,0,0,1-.45-.37c-.21-.34-.25-.73-.66-.58-.26-.16-.41-.48-.84-.16-.57,0-.8-.88-.87-1.14-.43.07-.29-.29-.8,0-.21,0-.69,0-.87,0-1,2.3-3.06,6.59-3,9.51a9.6,9.6,0,0,0,4.2,3.41,8.08,8.08,0,0,0,1.64-3.35v0A4.78,4.78,0,0,0,12.22,21.36Z" transform="translate(-0.82 -1.05)"/><path class="cls-4" d="M18.75,5.91l-.29-.14.12.06Z" transform="translate(-0.82 -1.05)"/><ellipse class="cls-5" cx="15.15" cy="15.24" rx="14.11" ry="14.2"/><ellipse class="cls-6" cx="15.15" cy="15.24" rx="15.03" ry="15.12"/><path class="cls-4" d="M19.08,14.66a.17.17,0,0,0,0,0C19,16,20.63,16.76,22,16.21c0-.17,0-.33-.05-.48C21.69,13.52,19.48,13.5,19.08,14.66Z" transform="translate(-0.82 -1.05)"/><path class="cls-7" d="M16,23.31a17.07,17.07,0,0,1-.51-1.92,8.34,8.34,0,0,1-1.86,3.72,9.51,9.51,0,0,0,4.11.32A3.81,3.81,0,0,1,16,23.31Z" transform="translate(-0.82 -1.05)"/><path class="cls-4" d="M23.06,16.08c.12,1.61.27,4.81-.49,6.26,0,.05-.14.78-.16.83a9,9,0,0,0,3.28-6.92,6.31,6.31,0,0,0-.27-2A13.06,13.06,0,0,1,23.06,16.08Z" transform="translate(-0.82 -1.05)"/><ellipse class="cls-5" cx="15.15" cy="15.24" rx="9.38" ry="9.27"/><path class="cls-8" d="M27.16,14A.19.19,0,0,1,27,14c-2.16,0-2.65,1.2-3.87,2.1-3,2.25-5.29.14-4.88-1.69h0c.69-2.48,4.62-1.35,4.88,1.69a17.71,17.71,0,0,1,0,3.82,9,9,0,0,1-1.23,3.95c-1,1.5-2.78,2.21-3.82,1.71A3.67,3.67,0,0,1,16,23.31a17.06,17.06,0,0,1-.51-1.92c-.35,2.22-2.59,5.13-4.31,5.51a5.54,5.54,0,0,1-5.7-3.68c-1-3.29-.9-7.13,3.2-12.45,1.31-1.71,3-3.32,2.86-3.32a8.8,8.8,0,0,0-6.19,4.32c-.09.17-.08-.86-.08-.86s.14-.7.15-.72C6.21,7,10.93,4.61,13.35,4.84a1.67,1.67,0,0,1,1.51,1C10.14,13.53,8,20,8.73,22.84c.63,2.62,1.55,2.62,2.48,2.63,1.87,0,2.91-2.64,3.69-5.72,0-.19,1.78-.7,1.8-.51.4,2.81.32,3.49,1.32,4.64.45.52.78.52.79.52.55.13,1.72.36,2.89-3.15A13.25,13.25,0,0,0,22,15.74c-.27-2.22-2.48-2.24-2.88-1.08a.17.17,0,0,0,0,0c-.12,1.7,2.71,2.46,4.07.64,1.16-1.55,2.47-3,4.59-2.69a.18.18,0,0,1,.12.29Z" transform="translate(-0.82 -1.05)"/></svg>