<svg id="Layer_1" data-name="Layer 1" xmlns="http://www.w3.org/2000/svg" viewBox="0 0 47.74 48.03"><defs><style>.cls-1{fill:#ffb992;}.cls-2{fill:#eb6000;}.cls-3{fill:#f37026;}.cls-4{fill:#ffd4bc;}.cls-5,.cls-6{fill:none;stroke:#008ded;}.cls-5,.cls-6,.cls-8{stroke-miterlimit:10;}.cls-5{stroke-width:2px;}.cls-6{stroke-width:0.25px;}.cls-7{fill:#fd9259;}.cls-8{fill:#292e30;stroke:#292e30;}</style></defs><title>WO-48x48</title><path class="cls-1" d="M25.26,20.74c.78.14,1-.51,1.7-.41a4.45,4.45,0,0,1,1.28-.78c.55,0,.64-.22,1-.52,0-.85.84-.9,1.29-1.06s.49-.45.79-.9c0-.93,1-.87,1.23-1.49.4.14,1.56.94,2,.18-.05-.82.5-.75.92-1,.06-.26.19-.19.37-.27A14.51,14.51,0,0,0,25.2,10a14.66,14.66,0,0,0-3.75.49c-1.33,2.28-2.51,4.67-3.53,6.76a8.48,8.48,0,0,0,1,0c.78-.5,1,.07,1.64,0,.1.41.26,1.82,1.14,1.77.66-.49.7,0,1.1.25.63-.24.89.37,1.22.89a2.67,2.67,0,0,0,.7.56h0" transform="translate(-0.06 -0.1)"/><path class="cls-2" d="M28.77,8.28l-.45-.21.18.1A1.13,1.13,0,0,0,28.77,8.28Z" transform="translate(-0.06 -0.1)"/><path class="cls-3" d="M36,14.74c-.18.07-.52,0-.58.27-.42.21-1,.13-.92,1a.59.59,0,0,1-.44.31h-.14a1.27,1.27,0,0,1-.29,0l-.29-.09c-.34-.13-.66-.32-.84-.38-.16.38-.52.43-.77.63a.67.67,0,0,0-.13.15.91.91,0,0,0-.13.5c-.15.23-.28.48-.42.69L31,17.9a.78.78,0,0,1-.45.27c-.44.16-1.07,0-1.08.85a5.31,5.31,0,0,1-.67.57l-.16.08a1,1,0,0,1-.37.08,2.28,2.28,0,0,0-.34.14,3.82,3.82,0,0,0-.47.29l-.46.35a.9.9,0,0,0-.34,0l-.2.07-.37.19a1.4,1.4,0,0,1-.41.15,1.14,1.14,0,0,1-.39,0c0,.31-.42.5-.68,1.32-.37.63-1.21.8-1.8,1.21a3,3,0,0,0-1.62,1.22c-.44.23-.22.68-.92,1.31-1,.1-.72-.88-1.49-.39-.65.06,0,1.06-.66,1.14a4.46,4.46,0,0,1-.87,1.11c.1.65.66.52.83,1.24,0,.57,2.12,1.08,1.34,1.21-1.46.25-.24,1.05-.48,1.61a5.7,5.7,0,0,1,3.31-.08c.22-.71.42-1.45.61-2.2.07-.29,2.74-1.08,2.78-.78.61,4.34.49,5.39,2,7.16.7.8,1.2.81,1.21.81.84.2,2.65.55,4.45-4.86A18,18,0,0,0,33.89,25c-3.81,1.68-6.4-1.12-5.85-3.59h0c1-3.53,6.24-2.31,7.34,1.6l.18-.22a12.78,12.78,0,0,1,3.3-3.33Z" transform="translate(-0.06 -0.1)"/><path class="cls-4" d="M18.69,32.13c.24-.56-1.12-1.63.34-1.87.78-.13-1-.18-1-.75-.16-.72-.93-1-1-1.64a5.47,5.47,0,0,0,.87-1.31c.69-.08,0-1.08.66-1.14.77-.49.71.29,1.69.19.7-.64.48-.88.92-1.11a3,3,0,0,1,1.62-1.22c.6-.41,1.23-.38,1.6-1,.26-.82.77-1,.73-1.31l-.25,0-.18-.1a2.67,2.67,0,0,1-.7-.56c-.33-.52-.39-1.13-1-.89-.4-.24-.64-.74-1.3-.25-.88.06-1.24-1.35-1.34-1.77-.66.11-.45-.45-1.23,0-.32,0-1.06,0-1.35,0C16.2,20.95,13,27.57,13.16,32.08a14.81,14.81,0,0,0,6.48,5.26c1.13-1.15,1.82-2.86,2.53-5.16v0A7.37,7.37,0,0,0,18.69,32.13Z" transform="translate(-0.06 -0.1)"/><ellipse class="cls-5" cx="23.87" cy="24.01" rx="21.82" ry="21.96"/><ellipse class="cls-6" cx="23.87" cy="24.01" rx="23.75" ry="23.89"/><path class="cls-2" d="M29.28,21.79a.26.26,0,0,0,0,.07c-.14,2,2.4,3.17,4.54,2.33,0-.26-.06-.51-.08-.73C33.31,20,29.9,20,29.28,21.79Z" transform="translate(-0.06 -0.1)"/><path class="cls-7" d="M24.57,35.14a26.33,26.33,0,0,1-.79-3,12.87,12.87,0,0,1-2.88,5.74,14.67,14.67,0,0,0,6.34.5A5.89,5.89,0,0,1,24.57,35.14Z" transform="translate(-0.06 -0.1)"/><path class="cls-2" d="M35.42,24c.18,2.48.42,7.43-.76,9.65,0,.08-.21,1.2-.25,1.27,2.87-2,5.07-6.6,5.07-10.68a9.74,9.74,0,0,0-.42-3.13A20.15,20.15,0,0,1,35.42,24Z" transform="translate(-0.06 -0.1)"/><ellipse class="cls-5" cx="23.87" cy="24.01" rx="14.48" ry="14.3"/><path class="cls-8" d="M41.75,20.72a.29.29,0,0,1-.21.09c-3.34.06-4.09,1.85-6,3.25-4.69,3.47-8.15.21-7.53-2.6h0c1.07-3.82,7.12-2.09,7.53,2.6a27.33,27.33,0,0,1,0,5.89A13.93,13.93,0,0,1,33.67,36c-1.5,2.31-4.29,3.4-5.89,2.64-.88-.42-2-.88-3.21-3.53a26.33,26.33,0,0,1-.79-3c-.54,3.43-4,7.92-6.65,8.51S9.5,39,8.33,35c-1.47-5.07-1.38-11,4.94-19.21,2-2.63,4.62-5.13,4.41-5.13-1.89,0-7.37,2.32-9.56,6.67C8,17.59,8,16,8,16s.22-1.08.23-1.11C9.42,10,16.7,6.28,20.44,6.63a2.58,2.58,0,0,1,2.33,1.6C15.49,20,12.24,30,13.31,34.41c1,4,2.39,4,3.82,4.06,2.88,0,4.49-4.08,5.69-8.82.07-.29,2.74-1.08,2.78-.78.61,4.34.49,5.39,2,7.16.7.8,1.2.81,1.21.81.84.2,2.65.55,4.45-4.86a20.45,20.45,0,0,0,.43-8.53C33.31,20,29.9,20,29.28,21.79a.26.26,0,0,0,0,.07c-.18,2.62,4.18,3.8,6.29,1,1.79-2.4,3.82-4.56,7.08-4.15a.27.27,0,0,1,.18.45Z" transform="translate(-0.06 -0.1)"/></svg>