<svg id="Layer_1" data-name="Layer 1" xmlns="http://www.w3.org/2000/svg" viewBox="0 0 94.45 95.02"><defs><style>.cls-1{fill:#ffb992;}.cls-2{fill:#eb6000;}.cls-3{fill:#f37026;}.cls-4{fill:#ffd4bc;}.cls-5,.cls-6{fill:none;stroke:#008ded;}.cls-5,.cls-6,.cls-8{stroke-miterlimit:10;}.cls-5{stroke-width:4px;}.cls-7{fill:#fd9259;}.cls-8{fill:#292e30;stroke:#292e30;}</style></defs><title>WO-96x96</title><path class="cls-1" d="M50.41,40.76c1.57.28,2.08-1,3.43-.83a9,9,0,0,1,2.57-1.57c1.1,0,1.28-.45,2-1.06,0-1.71,1.7-1.81,2.59-2.13s1-.91,1.59-1.82c0-1.87,1.95-1.76,2.48-3,.81.28,3.14,1.9,4,.36-.11-1.66,1-1.51,1.85-1.92.12-.52.39-.39.75-.54A29.25,29.25,0,0,0,50.29,19a29.55,29.55,0,0,0-7.57,1c-2.69,4.59-5.06,9.42-7.11,13.62a17.09,17.09,0,0,0,1.94,0c1.58-1,2,.15,3.3-.08.21.83.53,3.67,2.29,3.56,1.33-1,1.4,0,2.21.5,1.27-.48,1.8.74,2.46,1.8a5.37,5.37,0,0,0,1.41,1.14h0" transform="translate(-1.05 -0.5)"/><path class="cls-2" d="M57.48,15.65l-.91-.42.37.2A2.27,2.27,0,0,0,57.48,15.65Z" transform="translate(-1.05 -0.5)"/><path class="cls-3" d="M72.08,28.66c-.36.15-1,0-1.16.54-.85.41-2,.26-1.85,1.92a1.2,1.2,0,0,1-.88.63l-.27,0a2.56,2.56,0,0,1-.58-.07,4.69,4.69,0,0,1-.59-.18c-.69-.26-1.33-.64-1.69-.76-.33.77-1,.86-1.55,1.28a1.34,1.34,0,0,0-.27.29,1.83,1.83,0,0,0-.26,1c-.3.45-.56,1-.86,1.39a3.32,3.32,0,0,1-.24.3,1.57,1.57,0,0,1-.9.54c-.89.32-2.15,0-2.18,1.72a10.71,10.71,0,0,1-1.34,1.14,2.38,2.38,0,0,1-.32.16,2.09,2.09,0,0,1-.74.16,4.6,4.6,0,0,0-.68.28,7.71,7.71,0,0,0-1,.59c-.31.22-.62.46-.94.7a1.82,1.82,0,0,0-.68,0,2.33,2.33,0,0,0-.39.13c-.25.11-.49.25-.74.38a2.81,2.81,0,0,1-.83.29,2.3,2.3,0,0,1-.78,0c.1.63-.85,1-1.37,2.66-.75,1.27-2.43,1.61-3.64,2.44a6,6,0,0,0-3.26,2.46c-.89.46-.45,1.36-1.86,2.65-2,.2-1.46-1.78-3-.79-1.32.12,0,2.14-1.33,2.31a9,9,0,0,1-1.75,2.24c.2,1.31,1.33,1,1.66,2.49-.09,1.15,4.27,2.17,2.7,2.44-2.94.49-.49,2.13-1,3.25,2.7-.91,6.09-.55,6.68-.16.43-1.43.84-2.92,1.23-4.44.15-.59,5.52-2.18,5.61-1.57,1.24,8.74,1,10.87,4.09,14.43,1.41,1.62,2.42,1.62,2.45,1.63,1.7.41,5.34,1.11,9-9.79,1.56-4.69,1.51-10,1.19-14C60.13,52.83,54.9,47.17,56,42.2h0c2-7.12,12.58-4.67,14.8,3.23.12-.14.24-.29.35-.44a25.77,25.77,0,0,1,6.65-6.72Z" transform="translate(-1.05 -0.5)"/><path class="cls-4" d="M37.18,63.72c.48-1.12-2.25-3.28.68-3.78,1.56-.26-2.1-.36-2-1.5-.33-1.44-1.87-2-2.07-3.31a11,11,0,0,0,1.75-2.64c1.38-.16,0-2.18,1.33-2.31,1.55-1,1.43.58,3.41.38,1.41-1.29,1-1.78,1.86-2.24a6,6,0,0,1,3.26-2.46c1.21-.83,2.47-.76,3.23-2,.52-1.65,1.56-2,1.47-2.65l-.5,0-.37-.2a5.37,5.37,0,0,1-1.41-1.14c-.66-1.05-.79-2.27-2.06-1.8-.81-.48-1.29-1.49-2.62-.5-1.76.11-2.49-2.73-2.7-3.56-1.33.23-.91-.92-2.48.08-.64,0-2.13.09-2.72,0C32.15,41.18,25.72,54.52,26,63.61A29.85,29.85,0,0,0,39.08,74.22c2.27-2.31,3.68-5.77,5.1-10.4v0C44.21,63.73,39.87,62.81,37.18,63.72Z" transform="translate(-1.05 -0.5)"/><ellipse class="cls-5" cx="47.34" cy="47.15" rx="42.39" ry="42.65"/><ellipse class="cls-6" cx="47.23" cy="47.51" rx="46.73" ry="47.01"/><path class="cls-2" d="M58.52,42.87a.53.53,0,0,0,0,.13c-.28,4,4.84,6.39,9.15,4.69-.06-.53-.11-1-.17-1.48C66.63,39.31,59.77,39.26,58.52,42.87Z" transform="translate(-1.05 -0.5)"/><path class="cls-7" d="M49,69.77c-1.18-2.7-1.51-6.55-1.6-6-.6,3.76-2.93,8.15-5.8,11.57a29.56,29.56,0,0,0,12.79,1C52.81,75.53,50.91,74.09,49,69.77Z" transform="translate(-1.05 -0.5)"/><path class="cls-2" d="M70.9,47.3c.36,5,.85,15-1.53,19.46-.09.16-.43,2.41-.51,2.57C74.65,65.39,79.07,56,79.07,47.79a19.63,19.63,0,0,0-.85-6.31A40.61,40.61,0,0,1,70.9,47.3Z" transform="translate(-1.05 -0.5)"/><ellipse class="cls-5" cx="49.24" cy="47.34" rx="29.18" ry="28.82"/><path class="cls-8" d="M83.65,40.71a.58.58,0,0,1-.43.19c-6.72.12-8.25,3.73-12,6.54-9.46,7-16.44.43-15.17-5.24h0c2.16-7.7,14.35-4.21,15.17,5.24a55.08,55.08,0,0,1,0,11.86,28.07,28.07,0,0,1-3.82,12.27c-3,4.65-8.64,6.86-11.88,5.32-1.77-.84-4.13-1.78-6.46-7.12-1.18-2.7-1.51-6.55-1.6-6-1.1,6.91-8.07,16-13.4,17.15-5.52,1.23-15.38-3.33-17.74-11.45-3-10.23-2.79-22.16,10-38.72,4.08-5.3,9.31-10.33,8.9-10.33-3.82,0-14.85,4.67-19.26,13.44-.27.53-.24-2.69-.24-2.69s.44-2.17.46-2.24c2.4-9.88,17.08-17.36,24.62-16.64,3.23.31,4.9,2.9,4.69,3.23C30.72,39.34,24.17,59.35,26.32,68.3c2,8.16,4.81,8.16,7.7,8.18,5.8.05,9.05-8.22,11.47-17.78.15-.59,5.52-2.18,5.61-1.57,1.24,8.74,1,10.87,4.09,14.43,1.41,1.62,2.42,1.62,2.45,1.63,1.7.41,5.34,1.11,9-9.79,2-6.12,1.33-13.31.86-17.19-.84-6.91-7.7-7-9-3.34a.52.52,0,0,0,0,.13c-.37,5.27,8.43,7.66,12.67,2,3.61-4.83,7.69-9.2,14.26-8.36a.55.55,0,0,1,.37.91Z" transform="translate(-1.05 -0.5)"/></svg>